<?xml version="1.0" standalone="no"?>
<!DOCTYPE svg PUBLIC "-//W3C//DTD SVG 20010904//EN"
 "http://www.w3.org/TR/2001/REC-SVG-20010904/DTD/svg10.dtd">
<svg version="1.0" xmlns="http://www.w3.org/2000/svg"
 width="260.000000pt" height="260.000000pt" viewBox="0 0 260.000000 260.000000"
 preserveAspectRatio="xMidYMid meet">
<metadata>
Created by potrace 1.14, written by Peter Selinger 2001-2017
</metadata>
<g transform="translate(0.000000,260.000000) scale(0.100000,-0.100000)"
fill="#000000" stroke="none">
<path d="M0 1300 l0 -1300 1300 0 1300 0 0 1300 0 1300 -1300 0 -1300 0 0
-1300z m2071 1084 c24 -26 24 -26 20 -222 -3 -204 -10 -242 -48 -256 -9 -4
-110 -12 -223 -17 -168 -9 -208 -14 -222 -27 -15 -15 -19 -56 -28 -317 -18
-517 -30 -726 -46 -764 -11 -26 -15 -79 -16 -196 0 -88 -1 -196 -1 -240 0 -44
3 -103 7 -131 8 -50 7 -53 -20 -70 -24 -16 -58 -20 -244 -26 -139 -5 -226 -3
-247 3 -60 19 -63 31 -63 264 1 115 5 284 10 375 14 232 31 1015 23 1036 -5
14 -16 16 -72 10 -37 -3 -109 -15 -161 -25 -52 -11 -127 -23 -165 -26 -61 -6
-73 -5 -95 13 l-25 20 3 179 c1 98 5 220 8 272 8 120 21 136 115 145 86 8 748
22 1145 24 l321 2 24 -26z"/>
<path d="M1036 622 c-4 -24 -5 -46 -2 -49 12 -12 17 6 14 48 l-3 44 -9 -43z"/>
</g>
</svg>
